<svg xmlns="http://www.w3.org/2000/svg" xmlns:xlink="http://www.w3.org/1999/xlink" viewBox="0 0 88.39 88.39"><defs><style>.cls-1{fill:#34b1e4;}.cls-2{fill:#d7df23;}.cls-3{fill:#f9f98f;}.cls-4{fill:#212a3c;opacity:0.2;}.cls-5,.cls-6{opacity:0.3;}.cls-5{fill:url(#linear-gradient);}.cls-6{fill:#fff;}</style><linearGradient id="linear-gradient" x1="-57.92" y1="-88.63" x2="-40.08" y2="-55.81" gradientTransform="matrix(0.82, -0.14, 0.16, 0.84, 85.43, 79.95)" gradientUnits="userSpaceOnUse"><stop offset="0" stop-color="#fff"/><stop offset="1" stop-color="#fff" stop-opacity="0"/></linearGradient></defs><g id="Layer_2" data-name="Layer 2"><g id="OBJECTS"><path class="cls-1" d="M88.39,44.19A44.2,44.2,0,1,1,44.2,0,44.2,44.2,0,0,1,88.39,44.19Z"/><path class="cls-2" d="M47,72.81c1.35-2.41-.15-7.38-.15-8.58s-6.78-4.52-8.44-5.13a2.11,2.11,0,0,0-2.41.3s-9.79,2.87-11,4.83-8.89-2-9.19-3.77-2.11-7.23-2.26-7.84-8.14-6.17-9-6.33A14,14,0,0,0,.17,47.92,44.19,44.19,0,0,0,38.72,88c.15-2.6-.24-5,0-8.15.3-4.06.75-2.26,3.77-3.76S45.64,75.22,47,72.81Z"/><path class="cls-2" d="M55.38,76.63c-.61,1.37-.55,2.53,1.1,3a6.44,6.44,0,0,0,3.47-.3c1-.24,2.39,0,3.22-.67,2.51-2.18.45-4.18-1.65-5.68-.67-.47-1.36-.9-2-1.37C56.59,69.59,56.08,75.06,55.38,76.63Z"/><path class="cls-2" d="M67.19,6.45c-2.53,3.68-4.63,8.44-2.71,12.57,3.76,8.14,9.79,4.83,4.67,16.58s-8.89,6.63-8.29,18.23,2.71,18.53,6.63,18.38,5-15.82,15.22-14.31a15.87,15.87,0,0,1,3.23.81A44.21,44.21,0,0,0,67.19,6.45Z"/><path class="cls-2" d="M15.21,17.07c3.61,2.11,4.37,1.95,9,8.43s-1.51,8-3,13.56-1.2,9.5.91,11.3,15.07,1.06,14.16-3.31-1-10.25-1-15.37S39,29.87,44,27.76s4.06-11,4.06-12.65S44,7.12,41,5.31A43.09,43.09,0,0,1,35.54.85,44.17,44.17,0,0,0,9.85,16.39C11.32,16.78,13.24,15.92,15.21,17.07Z"/><path class="cls-2" d="M62.24,28.68A4.46,4.46,0,0,0,58.5,27a5.07,5.07,0,0,0-1.46.24,5.85,5.85,0,0,0-3.66,5c-.22,1.82.75,8.29.9,8.89a12.21,12.21,0,0,1,.15,3.47c-.08.65,1.74-.25,1.93-.35a6.49,6.49,0,0,0,3-2.32c.76-1.27.91-2.8,1.48-4.15C62,35,64.34,31.55,62.24,28.68Z"/><path class="cls-3" d="M81,51c1-.4,1.66-.67,2-1.81.58-2.29-.67-4.85-2.32-6.37A4.33,4.33,0,0,0,77,41.59a6.85,6.85,0,0,0-1.27.3,9.56,9.56,0,0,0-4.6,3.29c-1,1.49-.78,3.35-.82,5.07,0,1.25-.1,2.51-.22,3.76s-1.42,3.25.15,3.91c3.29,1.39,4.48-2.25,6.4-4.28A12.2,12.2,0,0,1,81,51Z"/><path class="cls-3" d="M72.11,9.94a12.78,12.78,0,0,0-1.52,3.68c-.53,2.17,1.21,5,3.24,5.79,1.71.66,1.13,2.27.82,3.7-.44,2.09-1.21,4.15-1.21,6.31,0,2.39.13,3.54,2.81,3.64,1.12,0,2.34.16,2.79-1.07a8.83,8.83,0,0,0,0-4.45,4.38,4.38,0,0,1,.3-2.79,10.35,10.35,0,0,0,.75-3.09c0-.83-.9-2.11-1.28-3.24a10.27,10.27,0,0,1-.37-2.18A44.21,44.21,0,0,0,72.11,9.94Z"/><path class="cls-3" d="M39,64.87c-1.34-.06-2.55.71-3.79,1.09l-2.41.73c-.68.2-1.36.41-2,.65-2.92,1-5.75,2.59-7.18,5.47-.55,1.11,3.49,1.32,3.93,1.35a28.51,28.51,0,0,0,6.1-.74c2.12-.33,4.27-.4,6.39-.79a4.28,4.28,0,0,0,3.67-3.28C44.4,66.64,41.4,65,39,64.87Z"/><path class="cls-3" d="M30.5,15.47c-.43-.11-1.1-.69-1.51-.66-2.2.15-.75,3.71,0,4.53,1.33,1.4,2.9,3,4.89,1.49.81-.6,1.63.34,2.32.71.32.17,2.56,1.37,2.91,1.1a12.23,12.23,0,0,0,2.71-2.41c1.54-2.32,1.12-5.59.2-8S38.38,7.61,36,6.53a2.9,2.9,0,0,0-1.37-.25,2.55,2.55,0,0,0-2.33,3.4,17,17,0,0,0,1.51,3.22c.9,1.4,0,1.6-.1,2.21C33.54,16,31.05,15.61,30.5,15.47Z"/><path class="cls-4" d="M9.9,72.06A44.19,44.19,0,0,0,79.61,17.75C67.86,35.85,39,74.8,9.9,72.06Z"/><path class="cls-4" d="M13.12,75.61A44.19,44.19,0,0,0,88.39,44.19a45.2,45.2,0,0,0-.27-4.82C75.45,57,48.68,85.45,13.12,75.61Z"/><path class="cls-5" d="M57.86,11.06c5.88,9.69-.45,24.28-14.14,32.58S14.18,50.84,8.3,41.16,8.75,16.89,22.43,8.58,52,1.38,57.86,11.06Z"/><path class="cls-6" d="M45.16,10c3.51,5.79-.87,14.86-9.79,20.28s-19,5.11-22.5-.67.87-14.87,9.78-20.28S41.64,4.2,45.16,10Z"/></g></g></svg>