<svg xmlns="http://www.w3.org/2000/svg" xmlns:xlink="http://www.w3.org/1999/xlink" viewBox="0 0 87.51 87.51"><defs><style>.cls-1{fill:#e6e7e8;}.cls-2{fill:#d1d3d4;}.cls-3{fill:#a7a9ac;}.cls-4{fill:#212a3c;opacity:0.1;}.cls-5{opacity:0.5;fill:url(#linear-gradient);}.cls-6{fill:#fff;opacity:0.3;}</style><linearGradient id="linear-gradient" x1="-87.76" y1="-72.39" x2="-70.22" y2="-40.11" gradientTransform="matrix(0.82, -0.14, 0.16, 0.84, 107.4, 61.53)" gradientUnits="userSpaceOnUse"><stop offset="0" stop-color="#fff"/><stop offset="1" stop-color="#fff" stop-opacity="0"/></linearGradient></defs><g id="Layer_2" data-name="Layer 2"><g id="OBJECTS"><circle class="cls-1" cx="43.76" cy="43.76" r="43.76" transform="translate(-8.88 11.22) rotate(-13.28)"/><path class="cls-2" d="M49,56.42A10.78,10.78,0,1,0,59.75,45.65,10.78,10.78,0,0,0,49,56.42Z"/><path class="cls-3" d="M69.42,23.64a6.06,6.06,0,1,0-6.06,6.06A6.05,6.05,0,0,0,69.42,23.64Z"/><path class="cls-2" d="M73.5,47.33A15.44,15.44,0,0,0,83.61,61.81a43.54,43.54,0,0,0,3.9-18.05A44.08,44.08,0,0,0,86,32.19,15.44,15.44,0,0,0,73.5,47.33Z"/><path class="cls-2" d="M14.43,54.86A2.44,2.44,0,1,0,12,57.3,2.44,2.44,0,0,0,14.43,54.86Z"/><path class="cls-2" d="M71.86,36.56A2.44,2.44,0,1,0,69.42,39,2.44,2.44,0,0,0,71.86,36.56Z"/><path class="cls-2" d="M17,65.85A6.06,6.06,0,1,0,23,59.79,6.05,6.05,0,0,0,17,65.85Z"/><path class="cls-2" d="M40.26,14.47a3.87,3.87,0,1,0,3.87-3.87A3.87,3.87,0,0,0,40.26,14.47Z"/><path class="cls-3" d="M58.08,85.11a15.43,15.43,0,0,0-30.3-.62,43.85,43.85,0,0,0,30.3.62Z"/><path class="cls-3" d="M19,42.75a8.25,8.25,0,1,0-8.25-8.25A8.25,8.25,0,0,0,19,42.75Z"/><path class="cls-2" d="M44.56,35.43a2.44,2.44,0,1,0-2.44,2.44A2.44,2.44,0,0,0,44.56,35.43Z"/><path class="cls-2" d="M36.81,52.76a3.87,3.87,0,1,0,3.87,3.87A3.87,3.87,0,0,0,36.81,52.76Z"/><path class="cls-4" d="M79.13,18c-12,18.35-39.31,54.5-67.52,55.42A43.75,43.75,0,0,0,79.13,18Z"/><path class="cls-4" d="M87.43,41.11C74.59,58.39,49.7,83.71,17,78.35A43.75,43.75,0,0,0,87.51,43.76C87.51,42.87,87.48,42,87.43,41.11Z"/><path class="cls-5" d="M57.51,10.51c5.79,9.53-.44,23.87-13.9,32.05S14.54,49.64,8.76,40.11s.44-23.87,13.9-32S51.73,1,57.51,10.51Z"/><path class="cls-6" d="M45,9.44c3.45,5.69-.86,14.62-9.63,20s-18.68,5-22.13-.66.85-14.62,9.62-20S41.56,3.75,45,9.44Z"/></g></g></svg>