<svg xmlns="http://www.w3.org/2000/svg" viewBox="0 0 157.92 151.7"><defs><style>.cls-1{fill:#482060;}.cls-2{fill:#cbc3e0;}.cls-3{fill:#702c8b;}.cls-4{fill:#f5d778;}.cls-5{fill:#fef3ed;}</style></defs><g id="Layer_2" data-name="Layer 2"><g id="layer_1-2" data-name="layer 1"><path class="cls-1" d="M45.25,20.41h4a3.05,3.05,0,0,1,3.05,3.05v5.08a0,0,0,0,1,0,0H42.2a0,0,0,0,1,0,0V23.46a3.05,3.05,0,0,1,3.05-3.05Z" transform="matrix(0.83, -0.56, 0.56, 0.83, -5.58, 30.82)"/><path class="cls-2" d="M39.27,47.59s-2.89-13.5,8.12-21.41S70,26.67,70,26.67Z"/><rect class="cls-2" x="100.1" y="103.93" width="7.97" height="7.97" transform="translate(-42.67 77.21) rotate(-34.22)"/><path class="cls-1" d="M58.29,28.15H99.64a0,0,0,0,1,0,0v74.29A12.44,12.44,0,0,1,87.2,114.88H70.73a12.44,12.44,0,0,1-12.44-12.44V28.15a0,0,0,0,1,0,0Z" transform="translate(-26.55 56.79) rotate(-34.22)"/><path class="cls-3" d="M92,139.61c-2.36-11.12,2.6-23,12.45-29.89,10.09-7,23.34-7.48,33-1Z"/><rect class="cls-1" x="117.73" y="122.6" width="2.02" height="11.19" transform="translate(-51.54 88.97) rotate(-34.22)"/><path class="cls-4" d="M126.62,133.24a3.69,3.69,0,1,1-5-.82A3.58,3.58,0,0,1,126.62,133.24Z"/><rect class="cls-5" x="40.08" y="60.59" width="6.84" height="3.25" transform="translate(-27.45 35.23) rotate(-34.22)"/><rect class="cls-5" x="72.2" y="107.57" width="6.84" height="3.72" transform="translate(-48.45 61.47) rotate(-34.22)"/><rect class="cls-5" x="79.24" y="32.7" width="6.84" height="3.25" transform="translate(-4.99 52.43) rotate(-34.22)"/><rect class="cls-5" x="111.36" y="79.68" width="6.84" height="3.72" transform="translate(-25.99 78.66) rotate(-34.22)"/><rect class="cls-5" x="19.01" y="58.49" width="40.82" height="80.19" transform="translate(-48.62 39.24) rotate(-34.22)"/><rect class="cls-2" x="6.97" y="74.9" width="8.13" height="8.13" transform="translate(-42.5 19.87) rotate(-34.22)"/><rect class="cls-2" x="17.26" y="67.9" width="8.13" height="8.13" transform="translate(-36.78 24.45) rotate(-34.22)"/><rect class="cls-2" x="27.38" y="61.02" width="8.13" height="8.13" transform="matrix(0.83, -0.56, 0.56, 0.83, -31.16, 28.95)"/><rect class="cls-2" x="14.29" y="85.48" width="8.13" height="8.13" transform="translate(-47.18 25.82) rotate(-34.22)"/><rect class="cls-2" x="24.58" y="78.48" width="8.13" height="8.13" transform="translate(-41.46 30.4) rotate(-34.22)"/><rect class="cls-2" x="34.69" y="71.6" width="8.13" height="8.13" transform="translate(-35.84 34.89) rotate(-34.22)"/><rect class="cls-2" x="21.6" y="96.06" width="8.13" height="8.13" transform="translate(-51.86 31.77) rotate(-34.22)"/><rect class="cls-2" x="31.9" y="89.06" width="8.13" height="8.13" transform="translate(-46.14 36.34) rotate(-34.22)"/><rect class="cls-2" x="42.01" y="82.18" width="8.13" height="8.13" transform="translate(-40.52 40.84) rotate(-34.22)"/><rect class="cls-2" x="28.92" y="106.63" width="8.13" height="8.13" transform="translate(-56.54 37.71) rotate(-34.22)"/><rect class="cls-2" x="39.21" y="99.63" width="8.13" height="8.13" transform="translate(-50.82 42.29) rotate(-34.22)"/><rect class="cls-2" x="49.33" y="92.75" width="8.13" height="8.13" transform="translate(-45.2 46.79) rotate(-34.22)"/><rect class="cls-2" x="36.24" y="117.21" width="8.13" height="8.13" transform="translate(-61.22 43.66) rotate(-34.22)"/><rect class="cls-2" x="46.53" y="110.21" width="8.13" height="8.13" transform="translate(-55.5 48.24) rotate(-34.22)"/><rect class="cls-2" x="56.65" y="103.33" width="8.13" height="8.13" transform="translate(-49.88 52.74) rotate(-34.22)"/><rect class="cls-2" x="43.56" y="127.79" width="8.13" height="8.13" transform="translate(-65.9 49.61) rotate(-34.22)"/><rect class="cls-2" x="53.85" y="120.79" width="8.13" height="8.13" transform="translate(-60.19 54.18) rotate(-34.22)"/><rect class="cls-2" x="63.97" y="113.91" width="8.13" height="8.13" transform="translate(-54.56 58.68) rotate(-34.22)"/><rect class="cls-5" x="98.08" y="4.54" width="40.82" height="80.19" transform="translate(-4.59 74.36) rotate(-34.22)"/><rect class="cls-2" x="86.03" y="20.95" width="8.13" height="8.13" transform="translate(1.53 55) rotate(-34.22)"/><rect class="cls-2" x="96.33" y="13.95" width="8.13" height="8.13" transform="translate(7.25 59.57) rotate(-34.22)"/><rect class="cls-2" x="106.44" y="7.07" width="8.13" height="8.13" transform="translate(12.87 64.07) rotate(-34.22)"/><rect class="cls-2" x="93.35" y="31.52" width="8.13" height="8.13" transform="translate(-3.15 60.94) rotate(-34.22)"/><rect class="cls-2" x="103.64" y="24.53" width="8.13" height="8.13" transform="translate(2.57 65.52) rotate(-34.22)"/><rect class="cls-2" x="113.76" y="17.64" width="8.13" height="8.13" transform="translate(8.19 70.02) rotate(-34.22)"/><rect class="cls-2" x="100.67" y="42.1" width="8.13" height="8.13" transform="translate(-7.83 66.89) rotate(-34.22)"/><rect class="cls-2" x="110.96" y="35.1" width="8.13" height="8.13" transform="translate(-2.11 71.47) rotate(-34.22)"/><rect class="cls-2" x="121.08" y="28.22" width="8.13" height="8.13" transform="translate(3.51 75.97) rotate(-34.22)"/><rect class="cls-2" x="107.99" y="52.68" width="8.13" height="8.13" transform="translate(-12.51 72.84) rotate(-34.22)"/><rect class="cls-2" x="118.28" y="45.68" width="8.13" height="8.13" transform="translate(-6.79 77.41) rotate(-34.22)"/><rect class="cls-2" x="128.4" y="38.8" width="8.13" height="8.13" transform="translate(-1.17 81.91) rotate(-34.22)"/><rect class="cls-2" x="115.31" y="63.25" width="8.13" height="8.13" transform="translate(-17.19 78.78) rotate(-34.22)"/><rect class="cls-2" x="125.6" y="56.25" width="8.13" height="8.13" transform="translate(-11.47 83.36) rotate(-34.22)"/><rect class="cls-2" x="135.72" y="49.37" width="8.13" height="8.13" transform="translate(-5.85 87.86) rotate(-34.22)"/><rect class="cls-2" x="122.63" y="73.83" width="8.13" height="8.13" transform="translate(-21.87 84.73) rotate(-34.22)"/><rect class="cls-2" x="132.92" y="66.83" width="8.13" height="8.13" transform="translate(-16.16 89.31) rotate(-34.22)"/><rect class="cls-2" x="143.04" y="59.95" width="8.13" height="8.13" transform="translate(-10.53 93.81) rotate(-34.22)"/><rect class="cls-3" x="50.52" y="54.61" width="41.23" height="10.96" transform="translate(-21.48 50.4) rotate(-34.22)"/><rect class="cls-3" x="56.85" y="66.81" width="41.23" height="5.18" transform="translate(-25.62 55.57) rotate(-34.22)"/><rect class="cls-2" x="79.16" y="27.14" width="3.73" height="52.72" transform="matrix(0.83, -0.56, 0.56, 0.83, -16.06, 54.83)"/><rect class="cls-2" x="103.01" y="80.96" width="3.73" height="15.2" transform="translate(-31.65 74.31) rotate(-34.22)"/><path class="cls-2" d="M126.21,151.6a15.14,15.14,0,0,1-9-1.86l.42-.69c.25.15,6.3,3.73,12.41.49a12.79,12.79,0,0,0,6.19-8.08l.78.19a13.58,13.58,0,0,1-6.59,8.61A12.11,12.11,0,0,1,126.21,151.6Z"/><path class="cls-2" d="M125.26,145.48a10.24,10.24,0,0,1-6.25-1.34l.43-.69a8.94,8.94,0,0,0,7.82.65,8.68,8.68,0,0,0,4.64-5l.76.27a9.57,9.57,0,0,1-5.09,5.44A8.68,8.68,0,0,1,125.26,145.48Z"/></g></g></svg>