<svg xmlns="http://www.w3.org/2000/svg" xmlns:xlink="http://www.w3.org/1999/xlink" viewBox="0 0 193.52 104"><defs><style>.cls-1{fill:#fff4e9;}.cls-2{fill:#db8231;}.cls-3{fill:#fed09e;}.cls-4{fill:#ffe1c5;}.cls-5{fill:#f9b673;}.cls-6{fill:#212a3c;opacity:0.2;}.cls-7{opacity:0.5;fill:url(#linear-gradient);}.cls-8{fill:#fff;opacity:0.4;}</style><linearGradient id="linear-gradient" x1="68.37" y1="9.55" x2="99.98" y2="48.59" gradientUnits="userSpaceOnUse"><stop offset="0" stop-color="#fff"/><stop offset="1" stop-color="#fff" stop-opacity="0"/></linearGradient></defs><g id="Layer_2" data-name="Layer 2"><g id="OBJECTS"><path class="cls-1" d="M94.36,31.23C40.94,37.86-1.29,53.9,0,67.05S45.74,85.47,99.16,78.84,194.82,56.17,193.49,43,147.78,24.6,94.36,31.23Zm3.58,44.1C60.29,80,19.57,78,18.26,65s38-24.92,75.66-29.6,78.36-2.64,79.67,10.32S135.59,70.66,97.94,75.33ZM95,37.62c-39.07,4.85-70,16.58-69,26.2s33.43,13.47,72.49,8.62,70-16.57,69-26.19S134.07,32.78,95,37.62Zm2.61,32.26c-27.53,3.41-57.31,1.93-58.26-7.54S67.15,44.12,94.68,40.69,152,38.76,153,48.24,125.16,66.46,97.62,69.88Z"/><ellipse class="cls-2" cx="139.69" cy="68.5" rx="1.13" ry="0.66"/><path class="cls-3" d="M149.18,52a52,52,0,1,1-52-52A52,52,0,0,1,149.18,52Z"/><path class="cls-2" d="M89.25,90c-5.22-1.31-10-.58-15.13.76-3.83,1-8.16-1.15-12.3-.61a52,52,0,0,0,62.72,6.11c-.63-.2-1.27-.39-1.93-.57-5.1-1.41-10.86-1.46-16.09-2.29C100.72,92.44,94.94,91.39,89.25,90Z"/><path class="cls-2" d="M129.71,58.08c-2.47-.85-4.79-2-7.31-2.77-3-.88-6.41-.65-9.48-.79-6.52-.31-12.29-2.34-18.62-3.48-4.81-.86-9.67.18-14.32,1.4a46.62,46.62,0,0,1-9.29,1.78c-3.2.18-6.25-.22-9.46.34-5.28.92-10.5,1.83-15.8,2.56.16,1.66.41,3.3.72,4.92l2.12-.24c5.16-.58,10.17-1.87,15.31-2.56,5.51-.74,10.59-.11,16.09-1.53,6.66-1.73,12.1-2.45,18.78-.51a69,69,0,0,0,16.29,2.4,29.9,29.9,0,0,1,9.3,1.52,75.31,75.31,0,0,0,7.32,2.68c4.76,1.24,9.95-.72,14.48-2a24.5,24.5,0,0,1,2.51-.59c.31-1.74.53-3.5.67-5.29C142.49,57.23,136.37,60.38,129.71,58.08Z"/><path class="cls-4" d="M132.73,72.93c-5.84-1.41-11.87-1-17.77-2.45-5-1.24-11.65-4.19-16.84-2.83a19.34,19.34,0,0,0-4.93,2.21c-1.9,1.12-5.44-.88-7.86-.29S81,71.27,78.72,72s-6.07-1.18-8.37-1.63c-5.84-1.15-11.92,1.16-17.41,2.91l-2.79.9a51.54,51.54,0,0,0,5.19,8.67c4.51-1.67,9.46-3.41,13.74-2.57,4.83,1,8.72,2.56,13.65.91,2.65-.89,4-2.15,6.86-1.15,2.38.83,5.53,0,7.68-1.07s2.73-1.72,5.2-1.29c2.78.48,5.5,1.28,8.22,2,6,1.6,11.81,1.74,17.91,2.59a36.38,36.38,0,0,1,8.88,2.56A52.27,52.27,0,0,0,143,76.7,52.8,52.8,0,0,0,132.73,72.93Z"/><path class="cls-5" d="M110.35,9.8c5-.32,10.05-1.15,15.08-1.44a51.95,51.95,0,0,0-54.2-1.42c4.52.69,9,1,12.78,1.4C90.79,9.12,101.83,10.35,110.35,9.8Z"/><path class="cls-2" d="M52.42,25.54a95.48,95.48,0,0,1,14.25-2c4.65-.39,8.77.38,13.35,1a61.25,61.25,0,0,0,15.89-.17c2.21-.28,4.41-.63,6.61-1,3.21-.5,5.19.39,8.17,1.46,4.46,1.61,9.44,1.82,14.13,1.92,5.06.1,9.92.82,15,1.26a16.14,16.14,0,0,0,3.48-.11,52.42,52.42,0,0,0-6.95-10.13c-3.82-.37-7.6-1-11.48-1A40.08,40.08,0,0,1,110.18,14c-5.16-2-10.74-.12-16,.55-10.29,1.31-20.14-1.74-30.44-.77l-2,.2A52.23,52.23,0,0,0,52.42,25.54Z"/><path class="cls-4" d="M122.56,36.13c-6-1.59-11.66-3.31-18-3.4s-12.85,0-19.16.42A41.43,41.43,0,0,0,76.57,35a30.93,30.93,0,0,1-10,.9,146.68,146.68,0,0,0-19.09.83c-.26.85-.5,1.72-.72,2.59a146,146,0,0,1,19.81-.92,41,41,0,0,0,14-2c6.41-1.88,13.91-.89,20.53-1.14,11.88-.44,22.5,5,34.31,5,4.23,0,8.38-.11,12.48.31-.19-.85-.4-1.69-.63-2.53a48,48,0,0,0-4.8-.33C135.64,37.63,129.25,37.91,122.56,36.13Z"/><ellipse class="cls-2" cx="136.19" cy="46.17" rx="3" ry="1.77"/><ellipse class="cls-2" cx="62.15" cy="44" rx="3" ry="1.77"/><ellipse class="cls-2" cx="125.4" cy="68.25" rx="3" ry="1.77"/><ellipse class="cls-2" cx="89.65" cy="5" rx="3" ry="1.77"/><ellipse class="cls-2" cx="103.21" cy="88.88" rx="1.81" ry="1.07"/><ellipse class="cls-2" cx="102.21" cy="40.13" rx="1.81" ry="1.07"/><ellipse class="cls-2" cx="74.96" cy="64.75" rx="1.81" ry="1.07"/><ellipse class="cls-2" cx="123.21" cy="13.88" rx="1.13" ry="0.66"/><ellipse class="cls-2" cx="76.35" cy="10.67" rx="1.13" ry="0.66"/><ellipse class="cls-2" cx="83.69" cy="43.5" rx="1.13" ry="0.66"/><path class="cls-2" d="M118,48.83c0,.37-.5.67-1.12.67s-1.13-.3-1.13-.67.5-.66,1.13-.66S118,48.47,118,48.83Z"/><ellipse class="cls-2" cx="129.02" cy="30.17" rx="1.13" ry="0.66"/><path class="cls-2" d="M98.81,62.67c0,.36-.5.66-1.12.66s-1.13-.3-1.13-.66.51-.67,1.13-.67S98.81,62.3,98.81,62.67Z"/><ellipse class="cls-2" cx="89.02" cy="86" rx="1.13" ry="0.66"/><path class="cls-2" d="M120.48,88.33c0,.37-.5.67-1.12.67s-1.13-.3-1.13-.67.5-.66,1.13-.66S120.48,88,120.48,88.33Z"/><ellipse class="cls-2" cx="59.35" cy="66" rx="1.13" ry="0.66"/><path class="cls-2" d="M63.31,29.33c0,.37-.5.67-1.12.67s-1.13-.3-1.13-.67.51-.66,1.13-.66S63.31,29,63.31,29.33Z"/><path class="cls-2" d="M105.15,28.16c0,.37-.51.67-1.13.67s-1.12-.3-1.12-.67.5-.66,1.12-.66S105.15,27.8,105.15,28.16Z"/><path class="cls-6" d="M138.79,20.81c-16.9,23.77-48.23,61.13-80.74,65.42a52,52,0,0,0,80.74-65.42Z"/><path class="cls-6" d="M149.15,50.84C132,71.56,103.16,97.11,66.67,94.1A52,52,0,0,0,149.18,52C149.18,51.61,149.16,51.23,149.15,50.84Z"/><path class="cls-1" d="M193.49,43c-.84-8.34-19-13.52-45.87-14.49.57,1.9,1.31,3.79,1.9,5.68,13.9,1.67,23.45,5.36,24.07,11.53,1.31,13-38,24.92-75.65,29.59S19.57,78,18.26,65c-.65-6.48,8.86-12.71,23.24-17.91A47.87,47.87,0,0,1,42,41.63C16,49.16-.81,58.69,0,67.05,1.36,80.19,45.74,85.47,99.16,78.84S194.82,56.17,193.49,43Z"/><path class="cls-1" d="M150.27,37.19c0,.12.06.24.08.36a25.12,25.12,0,0,1,.25,6.9A5.58,5.58,0,0,1,153,48.24c1,9.47-27.79,18.22-55.33,21.64s-57.31,1.93-58.26-7.54c-.23-2.22,1.19-4.39,3.82-6.47a24.57,24.57,0,0,1-1.49-5.4C31.53,54.81,25.59,59.52,26,63.82c1,9.61,33.43,13.47,72.49,8.62s70-16.57,69-26.19C167.08,42.05,160.64,39,150.27,37.19Z"/><path class="cls-7" d="M114.44,11.29c7,11.82-1,29.37-17.69,39.19s-35.89,8.2-42.84-3.63,1-29.38,17.68-39.2S107.49-.54,114.44,11.29Z"/><path class="cls-8" d="M99.08,9.75c4.15,7.07-1.31,18-12.2,24.38S63.8,40,59.65,32.92s1.31-18,12.2-24.37S94.93,2.69,99.08,9.75Z"/></g></g></svg>